<svg xmlns="http://www.w3.org/2000/svg" xmlns:xlink="http://www.w3.org/1999/xlink" width="16" height="16" viewBox="0 0 16 16">
    <defs>
        <path id="a" d="M11.193 15.203a1.167 1.167 0 0 1-1.105.797h-1.05a1.165 1.165 0 0 1 .002-2.33h1.048a1.155 1.155 0 0 1 1.006.577 2.256 2.256 0 0 0 1.95-1.743 1.178 1.178 0 0 1-1.002-1.164V8.028c0-.65.528-1.177 1.177-1.177h.086v-.797A5.099 5.099 0 0 0 8.212.961a5.1 5.1 0 0 0-5.094 5.093v.797h.086c.65 0 1.178.528 1.178 1.177v3.312c0 .65-.528 1.177-1.178 1.177h-.27a2.042 2.042 0 0 1-2.04-2.04V8.891c0-.85.522-1.58 1.263-1.887v-.95A6.061 6.061 0 0 1 8.212 0a6.061 6.061 0 0 1 6.055 6.054v.95a2.043 2.043 0 0 1 1.263 1.887v1.586c0 .938-.636 1.73-1.499 1.967a3.218 3.218 0 0 1-2.838 2.76zm.053-.493v.001a2.733 2.733 0 0 0 2.287-2.194 2.743 2.743 0 0 1-2.287 2.193zm2.176-3.154a.48.48 0 0 1 .256-.017c.505-.089.89-.531.89-1.062V8.891a1.08 1.08 0 0 0-1.078-1.079h-.27a.217.217 0 0 0-.216.216v3.312c0 .119.097.216.215.216h.203zM2.934 7.812a1.08 1.08 0 0 0-1.079 1.079v1.586a1.08 1.08 0 0 0 1.08 1.079h.27a.216.216 0 0 0 .215-.216V8.028a.216.216 0 0 0-.216-.216h-.27zm5.902 7.023c0 .112.092.203.204.203h1.048a.204.204 0 0 0 .144-.346.2.2 0 0 0-.144-.06H9.039a.204.204 0 0 0-.203.203z"/>
    </defs>
    <g fill="none" fill-rule="evenodd">
        <mask id="b" fill="#fff">
            <use xlink:href="#a"/>
        </mask>
        <use fill="#00579b" xlink:href="#a"/>
        <path fill="#00579b" d="M.333-.333h16v16h-16z" mask="url(#b)"/>
    </g>
</svg>
