<svg width="26" height="26" viewBox="0 0 26 26" fill="none" xmlns="http://www.w3.org/2000/svg">
<mask id="path-1-inside-1" fill="white">
<path fill-rule="evenodd" clip-rule="evenodd" d="M1.00012 13.3218C3.47227 9.15262 7.92185 6.37109 13.0001 6.37109C18.0783 6.37109 22.5279 9.15265 25.0001 13.3219C22.5279 17.4911 18.0783 20.2726 13.0001 20.2726C7.92186 20.2726 3.47226 17.4911 1.00012 13.3218Z"/>
</mask>
<path d="M1.00012 13.3218L-0.29011 12.5568L-0.743748 13.3218L-0.290114 14.0869L1.00012 13.3218ZM25.0001 13.3219L26.2903 14.0869L26.7439 13.3219L26.2903 12.5568L25.0001 13.3219ZM2.29035 14.0869C4.51196 10.3402 8.48887 7.87109 13.0001 7.87109V4.87109C7.35482 4.87109 2.43258 7.96504 -0.29011 12.5568L2.29035 14.0869ZM13.0001 7.87109C17.5113 7.87109 21.4882 10.3402 23.7098 14.0869L26.2903 12.5568C23.5676 7.96507 18.6454 4.87109 13.0001 4.87109V7.87109ZM23.7098 12.5568C21.4882 16.3035 17.5113 18.7726 13.0001 18.7726V21.7726C18.6454 21.7726 23.5676 18.6787 26.2903 14.0869L23.7098 12.5568ZM13.0001 18.7726C8.48888 18.7726 4.51196 16.3035 2.29036 12.5568L-0.290114 14.0869C2.43257 18.6786 7.35483 21.7726 13.0001 21.7726V18.7726Z" fill="#01579B" mask="url(#path-1-inside-1)"/>
<path d="M10.4764 8.26665C11.2323 7.86283 12.0904 7.63477 13 7.63477C16.0393 7.63477 18.5031 10.1809 18.5031 13.3218C18.5031 15.4268 17.3965 17.2646 15.7516 18.2479" stroke="#01579B"/>
<ellipse cx="12.9999" cy="13.3217" rx="4.28019" ry="4.42322" fill="#01579B"/>
<path d="M8.0198 4.14772L18.7323 21.8523" stroke="#01579B" stroke-width="1.5"/>
<path d="M7.49673 8.26677L13.917 19.6407" stroke="#01579B"/>
<path d="M5.66263 9.21458L11.7772 19.6407" stroke="#01579B"/>
<path d="M3.82818 10.4784L9.0256 19.3247" stroke="#01579B"/>
<path d="M2.29954 12.0583L5.35678 17.4292" stroke="#01579B"/>
</svg>
