<?xml version="1.0" encoding="UTF-8"?>
<svg xmlns="http://www.w3.org/2000/svg" xmlns:xlink="http://www.w3.org/1999/xlink" width="16pt" height="16pt" viewBox="0 0 16 16" version="1.1">
<g id="surface1">
<path style=" stroke:none;fill-rule:nonzero;fill:rgb(0%,34.117647%,60.784314%);fill-opacity:1;" d="M 14.472656 13.253906 L 12.886719 11.664062 L 12.886719 0.269531 C 12.886719 0.121094 12.765625 0 12.617188 0 L 4.574219 0 C 4.570312 0 4.566406 0.00390625 4.558594 0.00390625 C 4.535156 0.00390625 4.511719 0.0078125 4.488281 0.015625 C 4.480469 0.0195312 4.472656 0.0234375 4.464844 0.0273438 C 4.433594 0.0390625 4.40625 0.0585938 4.382812 0.078125 L 1.167969 3.296875 C 1.144531 3.320312 1.125 3.347656 1.113281 3.375 C 1.109375 3.382812 1.105469 3.390625 1.105469 3.398438 C 1.097656 3.421875 1.09375 3.445312 1.089844 3.46875 C 1.089844 3.476562 1.085938 3.480469 1.085938 3.484375 L 1.085938 13.671875 C 1.085938 13.820312 1.207031 13.941406 1.355469 13.941406 L 10.609375 13.941406 L 12.195312 15.527344 C 12.496094 15.832031 12.90625 16 13.335938 16 C 13.984375 16 14.574219 15.609375 14.820312 15.007812 C 15.070312 14.40625 14.933594 13.710938 14.472656 13.253906 Z M 12.199219 14.773438 L 8.027344 10.601562 L 9.546875 9.082031 L 13.71875 13.253906 Z M 7.800781 10.070312 L 7.4375 8.492188 L 9.015625 8.855469 Z M 4.308594 0.914062 L 4.308594 3.21875 L 2.003906 3.21875 Z M 1.625 13.40625 L 1.625 3.753906 L 4.574219 3.753906 C 4.722656 3.753906 4.84375 3.632812 4.84375 3.484375 L 4.84375 0.535156 L 12.351562 0.535156 L 12.351562 11.128906 L 9.734375 8.511719 L 9.730469 8.511719 C 9.710938 8.488281 9.683594 8.472656 9.65625 8.460938 C 9.648438 8.457031 9.640625 8.453125 9.632812 8.453125 C 9.625 8.449219 9.617188 8.445312 9.605469 8.441406 L 7.140625 7.871094 C 7.050781 7.851562 6.953125 7.878906 6.890625 7.945312 C 6.824219 8.007812 6.796875 8.105469 6.816406 8.195312 L 7.386719 10.660156 C 7.390625 10.671875 7.394531 10.679688 7.398438 10.691406 C 7.398438 10.695312 7.402344 10.703125 7.40625 10.710938 C 7.417969 10.738281 7.433594 10.765625 7.457031 10.789062 L 10.074219 13.40625 Z M 14.09375 15.148438 C 13.890625 15.351562 13.621094 15.464844 13.335938 15.464844 C 13.050781 15.464844 12.777344 15.351562 12.578125 15.148438 L 14.09375 13.632812 C 14.296875 13.832031 14.410156 14.105469 14.410156 14.390625 C 14.40625 14.675781 14.292969 14.945312 14.09375 15.148438 Z M 14.09375 15.148438 "/>
<path style=" stroke:none;fill-rule:nonzero;fill:rgb(0%,34.117647%,60.784314%);fill-opacity:1;" d="M 3.503906 5.363281 L 10.472656 5.363281 C 10.621094 5.363281 10.742188 5.242188 10.742188 5.09375 C 10.742188 4.945312 10.621094 4.824219 10.472656 4.824219 L 3.503906 4.824219 C 3.355469 4.824219 3.234375 4.945312 3.234375 5.09375 C 3.234375 5.242188 3.355469 5.363281 3.503906 5.363281 Z M 3.503906 5.363281 "/>
<path style=" stroke:none;fill-rule:nonzero;fill:rgb(0%,34.117647%,60.784314%);fill-opacity:1;" d="M 3.503906 6.96875 L 10.472656 6.96875 C 10.621094 6.96875 10.742188 6.851562 10.742188 6.703125 C 10.742188 6.554688 10.621094 6.433594 10.472656 6.433594 L 3.503906 6.433594 C 3.355469 6.433594 3.234375 6.554688 3.234375 6.703125 C 3.234375 6.851562 3.355469 6.96875 3.503906 6.96875 Z M 3.503906 6.96875 "/>
<path style=" stroke:none;fill-rule:nonzero;fill:rgb(0%,34.117647%,60.784314%);fill-opacity:1;" d="M 5.378906 8.042969 L 3.503906 8.042969 C 3.355469 8.042969 3.234375 8.164062 3.234375 8.3125 C 3.234375 8.460938 3.355469 8.578125 3.503906 8.578125 L 5.378906 8.578125 C 5.527344 8.578125 5.648438 8.460938 5.648438 8.3125 C 5.648438 8.164062 5.527344 8.042969 5.378906 8.042969 Z M 5.378906 8.042969 "/>
</g>
</svg>
